PathFileType	4	(X/Y/Z)	Walk1_0-155.trc
DataRate	CameraRate	NumFrames	NumMarkers	Units	OrigDataRate	OrigDataStartFrame	OrigNumFrames
30	30	4	22	m	30	0	155
Frame#	Time	Hip			RHip			RKnee			RAnkle			RBigToe			RSmallToe			RHeel			LHip			LKnee			LAnkle			LBigToe			LSmallToe			LHeel			Neck			Head			Nose			RShoulder			RElbow			RWrist			LShoulder			LElbow			LWrist		
		X1	Y1	Z1	X2	Y2	Z2	X3	Y3	Z3	X4	Y4	Z4	X5	Y5	Z5	X6	Y6	Z6	X7	Y7	Z7	X8	Y8	Z8	X9	Y9	Z9	X10	Y10	Z10	X11	Y11	Z11	X12	Y12	Z12	X13	Y13	Z13	X14	Y14	Z14	X15	Y15	Z15	X16	Y16	Z16	X17	Y17	Z17	X18	Y18	Z18	X19	Y19	Z19	X20	Y20	Z20	X21	Y21	Z21	X22	Y22	Z22
1	0.03333333333333333	-2.573397410971756	0.8322368216536681	0.39230732264334717	-2.568032127385832	0.7996029590375114	0.4882296855913033	-2.5529437436606806	0.43560075583578944	0.5084063882412466	-2.5737668434687353	0.08289026871210729	0.5091520396040987	-2.402050306101208	-0.0020660044721332333	0.5502231750509435	-2.479237068000969	-0.022621999320042614	0.6084959218418682	-2.609750221286068	0.018151456574640373	0.4980376133756038	-2.57386743201043	0.7985408270693892	0.3093085847026649	-2.5472389482350937	0.4496626295456396	0.2957850293632982	-2.5721002399283885	0.08062187821401452	0.2850252690026359	-2.381387607376815	-0.00686990937518864	0.280083449790179	-2.418951166217327	-0.013372839516450895	0.20868704562535606	-2.624609663941447	-0.0011251928222540287	0.2928344280470172	-2.5630645195479547	1.524072567145768	0.35084464286259615	-2.5425938864196826	1.7856597738259126	0.3712128503368399	-2.4153393222743773	1.6575257522753253	0.375210360915661	-2.558274147690325	1.3945981506978993	0.5846729608733346	-2.558425940674866	1.095550076546827	0.6284566779631356	-2.483482895246649	0.85746432321644	0.6126032468938282	-2.564464676206625	1.3969251886596101	0.20824205663482226	-2.5465836994901174	1.094957658734112	0.1556857185665015	-2.4838856081033773	0.8535443502947088	0.17108365434656927
2	0.06666666666666667	-2.576579647803315	0.8373080681431093	0.3946729336349538	-2.5691290299316485	0.8053909591287383	0.48739365723724654	-2.548724728508789	0.4404526347699987	0.5069817907377699	-2.5665643472097117	0.08791961283528725	0.5123154978706674	-2.442981322087596	-0.017206591036776117	0.5344032691686715	-2.4827855056492525	-0.01855717112388415	0.6026418596286758	-2.6291973798725436	0.008168262793168483	0.49893794233997435	-2.5769929956361435	0.8028668728357252	0.30660635487998517	-2.549617888146991	0.4511908903703468	0.2930027280172858	-2.571411027787668	0.08104936265789907	0.28120825772267155	-2.3815412034037857	-0.011646494889501018	0.2818107911855004	-2.4236759722580805	-0.016121137454999906	0.20760938582945015	-2.622011272893682	0.0007883011492092198	0.30013444130270095	-2.5339817302213796	1.501567505311022	0.3964379583785609	-2.539481310720228	1.7852262491730022	0.36946597640501083	-2.4163375025264027	1.6541181016577209	0.36781736735523113	-2.5535447738533756	1.3914097577050446	0.5873469950738497	-2.5147652760492534	1.0802925607172442	0.632460163683994	-2.480438973958637	0.8553646860606962	0.6119771400706825	-2.5664721004378483	1.399386118371195	0.20797533828060505	-2.5453642822045492	1.1003236843000712	0.15543558762483667	-2.482071613398178	0.8580800636900933	0.1722234376229951
3	0.1	-2.578869325074415	0.837367850278082	0.3925786393735198	-2.5722068923097385	0.806468862560511	0.48721916195091314	-2.5554338326583586	0.4395423937408245	0.508587883711675	-2.5758764092255486	0.08745039899068544	0.5147018305468101	-2.442940530365093	-0.014008621495557896	0.5319846525244109	-2.4918620260764457	-0.010432484286070982	0.6220730616662999	-2.6354772220857154	0.007523350701150735	0.5025574172876454	-2.575512125973372	0.8052998364118111	0.30467332003157105	-2.549500810404047	0.45193915533130136	0.293963628900721	-2.571884881788791	0.08052656182384375	0.28259933078802946	-2.38176891197703	-0.00921805944555499	0.2801468390177358	-2.4216066164672654	-0.01519835699569074	0.2089279830492351	-2.624627425883125	0.0010927024787313602	0.30148103011172767	-2.53402784986765	1.5007089220467047	0.3919633895730687	-2.531641542675672	1.785783456508311	0.36720871456048904	-2.414150344285438	1.6541608929686737	0.3619815814476579	-2.5525244729754317	1.3915102539511341	0.5802368893046516	-2.555062172010251	1.0966060744781971	0.6215193017568258	-2.4821489203084712	0.8566746425368599	0.6111735471305181	-2.5658717818394003	1.3987612158186231	0.20329410407031195	-2.5439235587736073	1.0995310319494775	0.15256468226608308	-2.48085776753544	0.8564099197824411	0.16904645866479187
4	0.13333333333333333	-2.5809200209660577	0.8378929694851297	0.3923865854416547	-2.573567865437353	0.8094122352835156	0.4872579808872856	-2.5526250291529498	0.4422093828047686	0.5077335646936326	-2.5738038126212466	0.09262698505661074	0.516755417069676	-2.443789357079054	-0.014794993129680406	0.5333222627022993	-2.486259939848527	-0.01974269756589763	0.603059455744297	-2.6854007558438378	-0.013309998365099402	0.49714833352726007	-2.5773020722005113	0.8057909224907527	0.30631918737586095	-2.5469194405452256	0.4531031731459335	0.29429790953712126	-2.5695070493071723	0.0813061586099753	0.28386054055036847	-2.3817204292963736	-0.009232608728907984	0.2805916375849144	-2.421280845954747	-0.014029469054562049	0.2100478813043138	-2.622730172913713	0.0006531256294390264	0.3020957771122234	-2.5307411382999656	1.5015077322980526	0.39146165506923164	-2.5319332558710363	1.7864993868191608	0.36653725102016205	-2.4141741979079567	1.6544983285204489	0.35741953202882515	-2.5497846936161355	1.3933625148620024	0.5789468531782309	-2.554254851372405	1.0948795713758652	0.6205194099614515	-2.4801170752238577	0.8545901971176291	0.6096041371737357	-2.5638942142582155	1.401990294306413	0.20064463405169883	-2.5437652442177936	1.1005540772600915	0.1528567992686766	-2.479246301093938	0.8580861963380697	0.16531342317571937
